<svg width="16" height="16" viewBox="0 0 0.48 0.48" xmlns="http://www.w3.org/2000/svg">
<g fill="none" fill-rule="evenodd">
<path d="M.48 0v.48H0V0zM.252.465.251.466.25.465v.009l.002.001.002-.001V.465M.259.463.255.465v.009l.004.002H.26L.259.464m-.014 0H.244L.243.476.247.474V.465z"/>
<path d="M.24.04a.18.18 0 0 1 .18.18v.172c0 .037-.039.06-.071.042L.342.43C.322.42.306.416.284.428L.28.43a.08.08 0 0 1-.075.002L.201.43C.175.415.158.42.132.434A.048.048 0 0 1 .061.392V.22a.18.18 0 0 1 .18-.18M.17.18a.03.03 0 1 0 0 .06.03.03 0 0 0 0-.06m.14 0a.03.03 0 1 0 0 .06.03.03 0 0 0 0-.06" fill="#E0E0E0"/>
</g>
</svg>