<svg xmlns="http://www.w3.org/2000/svg" width="16" height="16" viewBox="0 0 2 2" xml:space="preserve">
<path fill="#E0E0E0" d="M1.018.754a.037.037 0 0 0 0-.052L.732.414a.037.037 0 0 0-.052 0L.394.702a.037.037 0 0 0 0 .052l.052.052a.037.037 0 0 0 .052 0l.09-.09C.602.702.63.712.63.734v.528c0 .02.018.038.038.038h.074c.02 0 .038-.02.038-.038V.734C.78.712.808.702.822.716l.09.09a.037.037 0 0 0 .052 0zm.548.498-.052-.05a.037.037 0 0 0-.052 0l-.09.09c-.014.014-.042.004-.042-.018V.742a.04.04 0 0 0-.038-.038h-.074c-.02 0-.038.02-.038.038v.528c0 .022-.028.032-.042.018l-.09-.09a.037.037 0 0 0-.052 0l-.052.054a.037.037 0 0 0 0 .052l.286.286a.037.037 0 0 0 .052 0l.286-.286c.014-.014.014-.04-.002-.052"/>
</svg>